<svg xmlns="http://www.w3.org/2000/svg"><symbol id="facebook" viewBox="0 0 792 792"><path fill="#fff" d="M382.4 94.3h27.1l4.2.5c14.8 2 29.9 2.9 44.5 6 76.1 16.5 137.3 56.6 183 119.6 31 42.8 49 90.8 54.7 143.4.6 6.2 1.1 12.4 1.7 18.6v27.1c-.2 1.3-.4 2.6-.5 3.9-1.3 11.6-2 23.3-4.1 34.8-9.9 56.3-33.7 106.1-72 148.5Q539.3 687 417.6 696.8a287.1 287.1 0 0 1-101.4-9.9c-69.2-19.4-125-58.4-166.5-117s-60-126.6-54.3-199.6a290 290 0 0 1 20.3-86.1q41-100.5 135.9-153.1A291.5 291.5 0 0 1 363.8 96zM477 279.8v-57.5h-2.3c-19.7 0-39.4-.1-59.1.1a105.4 105.4 0 0 0-15.9 1.2c-20.1 3.4-34.4 14.1-42.1 33.2a88.1 88.1 0 0 0-6.5 29.9c-.6 15.9-.5 31.8-.7 47.7-.1 1.2 0 2.4 0 3.8h-35.3V396h35.4v173.9h57.1V396H465c3.1-19.3 6.1-38.4 9.2-57.9h-66.3c0-11.9-.9-23.5.2-35 1.5-16.3 9.9-23.1 26.7-23.3 12.8-.1 25.7 0 38.5 0z"/></symbol><symbol id="twitter" viewBox="0 0 792 792"><path fill="#fff" d="M395.8 94.4c166-.3 300.4 134.1 301.2 301.1S562.8 697.4 396.2 697.6 94.8 562.5 95 395.8s134.4-301 300.8-301.4zm-177 434.5l2.2 1.6c67.1 38.3 136.9 43.2 205.9 9.3 80.3-39.5 117.9-108.2 120.7-196.8.2-5.4 1.4-9 5.8-12.4a129.4 129.4 0 0 0 30.7-33.1L545.5 308l-.7-1.9c14-9.8 24.3-22.3 29.7-38.2l-39.3 14.4c-5.2 2-8.9.9-13.2-2.9a75.8 75.8 0 0 0-125.1 69.2 25.5 25.5 0 0 1 .1 4.9c-63.1-4.5-114.4-31.1-155.7-79.2-9.7 17.9-12.4 35.8-8.2 54.9s15 33.5 29.9 45.6l-1.2 1.7-30.7-8.8c-2.4 31.4 18.7 58.5 57.9 75.3h-31.2c7.5 27.8 28 43.6 69 53.5-32.4 24.6-68.4 34.2-108 32.4z"/></symbol><symbol id="instagram" viewBox="0 0 792 792"><path fill="#fff" d="M396 697.8C229.4 697.9 94.2 562.7 94.1 396S229.4 94.1 396.2 94.2 697.8 229.4 697.9 396 562.8 697.8 396 697.8zm-.3-119.8c17.7 0 35.3.1 53-.1s32.5-.3 48.5-3.9c41.1-9.1 66.7-34 76.5-75.1 4-16.8 4.1-34 4.2-51.2.3-34.7.2-69.5 0-104.2-.1-16.5-.2-33.1-3.8-49.4-8.6-38.8-31.7-64.3-70.3-75.2-15.6-4.4-31.7-5.2-47.7-5.3-40.4-.3-80.7-.2-121 0-13.9.1-27.8.7-41.5 3.8-37.9 8.6-63.1 31-74.3 68.5-4.8 15.9-5.6 32.2-5.7 48.5q-.4 61.2 0 122.3c0 13.8.7 27.5 3.7 41 9.3 40.7 34.1 66.1 74.8 75.9 16.7 4 33.7 4 50.7 4.3s35.3.1 52.9.1z"/><path fill="#fff" d="M245.3 395.7c.5-25.4.9-50.8 1.6-76.3.4-11.4 2.3-22.7 6.9-33.3 8.6-19.9 23.9-31.9 44.9-36.2a187.5 187.5 0 0 1 31.8-3.4c26.8-.6 53.6-.7 80.5-.7 20.3.1 40.7.5 61 1.2 13.6.4 27 2.9 39.1 9.6 16.8 9.3 26.4 23.9 30.6 42.4 2.5 10.9 3.2 21.9 3.3 32.9q.3 63.9 0 127.6c-.1 12-.8 24-4 35.6-7.2 26.6-24.8 42.1-51.5 47.1a172.4 172.4 0 0 1-28.8 2.7q-64.9.3-130.1 0c-11.6 0-23.2-.8-34.5-3.9-26.3-7.2-41.7-24.5-46.9-51-3.6-17.9-3-36-3.4-54.1-.2-13.4 0-26.8 0-40.1zm56.7-.1c0 51.7 41.8 93.8 93.4 93.8a93.7 93.7 0 1 0-93.4-93.8zm191-75.4a21.9 21.9 0 1 0-21.9-22 21.9 21.9 0 0 0 21.9 22z"/><path fill="#fff" d="M334.6 395.6c.1-33.7 27.6-61.2 61.3-61a61.1 61.1 0 1 1-61.3 61z"/></symbol></svg>