<svg id="Layer_1" data-name="Layer 1" xmlns="http://www.w3.org/2000/svg" width="0.6in" height="0.7in" viewBox="0 0 43.2 50.4"><title>Artboard 1</title><path d="M20.4,43.7l-4.2.7a5.9,5.9,0,0,1-6.9-4.8,5.5,5.5,0,0,1,1.3-4.9l2.9-3.3a9.5,9.5,0,0,0,1-1.7L16,25.6a6,6,0,0,1,7.8-3.3,5.8,5.8,0,0,1,3.3,3.4l1.5,4.1a6.4,6.4,0,0,0,1,1.8l2.7,3.3a6,6,0,0,1-.7,8.4,5.8,5.8,0,0,1-4.9,1.2l-4.3-.8A6.7,6.7,0,0,0,20.4,43.7Z" fill="none" stroke="#00196e" stroke-miterlimit="9.23" stroke-width="2"/><path d="M11.7,29.5a9.3,9.3,0,0,1-1.8,1.6l-.6.2-.9.5c-2.9.4-5.3-2.3-5.9-5a6.4,6.4,0,0,1-.2-.7,4.4,4.4,0,0,1,.8-3.7,1.8,1.8,0,0,1,.7-.5l.6-.3a5.9,5.9,0,0,1,2.2-.5h1c2.6.7,4.5,4,4.8,6.5l-.3,1A3.6,3.6,0,0,1,11.7,29.5Z" fill="none" stroke="#00196e" stroke-miterlimit="9.23" stroke-width="2"/><path d="M31.5,29.5a9.3,9.3,0,0,0,1.8,1.6l.6.2.9.5c2.9.4,5.3-2.3,5.9-5a1.7,1.7,0,0,0,.1-.7,4.1,4.1,0,0,0-.7-3.7,1.8,1.8,0,0,0-.7-.5l-.6-.3a6.4,6.4,0,0,0-2.3-.5h-.9c-2.6.7-4.5,4-4.8,6.5l.3,1A3.6,3.6,0,0,0,31.5,29.5Z" fill="none" stroke="#00196e" stroke-miterlimit="9.23" stroke-width="2"/><path d="M20.2,12a.8.8,0,0,1,0,.7,13.5,13.5,0,0,1-.4,2.9l-.3.9c-.8,1.7-1.9,3.3-3.7,3.2a3.2,3.2,0,0,1-1.4-.3h-.1a7.6,7.6,0,0,1-3.6-5.8c-.4-2.7,1.4-7.3,4.3-7.6a3.6,3.6,0,0,1,3.1.9l.7.6c1,1.1,1.2,2.8,1.4,4.4Z" fill="none" stroke="#00196e" stroke-miterlimit="9.23" stroke-width="2"/><path d="M22.8,12v.7a9.3,9.3,0,0,0,.5,2.9,3.2,3.2,0,0,0,.3.9c.8,1.7,1.9,3.3,3.7,3.2a2.8,2.8,0,0,0,1.3-.3h.2a7.3,7.3,0,0,0,3.5-5.9c.6-3.9-1.4-7.3-4.1-7.6a3.9,3.9,0,0,0-3.3.9l-.6.6c-1.1,1.1-1.2,2.8-1.4,4.4Z" fill="none" stroke="#00196e" stroke-miterlimit="9.23" stroke-width="2"/></svg>