<svg id="Layer_1" data-name="Layer 1" xmlns="http://www.w3.org/2000/svg" width="0.6in" height="0.7in" viewBox="0 0 46.8 47.1"><title>paw</title><path d="M22.1,43.6l-4.6.7a6.4,6.4,0,0,1-6-10.5l3.1-3.5a7.2,7.2,0,0,0,1.1-1.9L17.3,24a6.5,6.5,0,0,1,12.1.1L31,28.5a5.6,5.6,0,0,0,1.1,2L35,34.1a6.4,6.4,0,0,1-6.1,10.4l-4.6-.9A8.1,8.1,0,0,0,22.1,43.6Z" fill="none" stroke="#231f20" stroke-miterlimit="10" stroke-width="1.81"/><path d="M12.7,28.2a8.5,8.5,0,0,1-2,1.7l-.6.3-1,.5c-3.1.4-5.7-2.5-6.4-5.4-.1-.2-.1-.5-.2-.8a4.7,4.7,0,0,1,.9-4,1.8,1.8,0,0,1,.7-.5l.7-.4a6.9,6.9,0,0,1,2.4-.5h1c2.9.8,4.9,4.3,5.2,7.1l-.3,1A3.6,3.6,0,0,1,12.7,28.2Z" fill="none" stroke="#231f20" stroke-miterlimit="10" stroke-width="1.81"/><path d="M34.1,28.2a8.5,8.5,0,0,0,2,1.7l.6.3,1,.5c3.1.4,5.7-2.5,6.4-5.4a1.9,1.9,0,0,0,.1-.8,4.4,4.4,0,0,0-.8-4,1.8,1.8,0,0,0-.7-.5l-.7-.4a7,7,0,0,0-2.5-.5h-.9c-2.9.8-4.9,4.3-5.2,7.1a5.4,5.4,0,0,0,.3,1A3.6,3.6,0,0,0,34.1,28.2Z" fill="none" stroke="#231f20" stroke-miterlimit="10" stroke-width="1.81"/><path d="M21.9,9.2a2.1,2.1,0,0,1,0,.8,11.3,11.3,0,0,1-.5,3.2l-.3.9c-.8,1.9-2,3.6-4,3.5a4,4,0,0,1-1.5-.3.1.1,0,0,0-.1-.1c-2-1-3.5-3.4-3.9-6.3S13.1,3,16.2,2.6a4.3,4.3,0,0,1,3.4,1l.8.7c1.1,1.2,1.3,3,1.5,4.7Z" fill="none" stroke="#231f20" stroke-miterlimit="10" stroke-width="1.81"/><path d="M24.7,9.2V10a11.3,11.3,0,0,0,.5,3.2,3.6,3.6,0,0,0,.4.9c.8,1.9,2,3.6,4,3.5a3.2,3.2,0,0,0,1.4-.3h.2A8.1,8.1,0,0,0,35,10.9c.6-4.2-1.5-7.9-4.5-8.3a4.5,4.5,0,0,0-3.5,1,4.6,4.6,0,0,0-.7.7C25.1,5.5,25,7.3,24.8,9Z" fill="none" stroke="#231f20" stroke-miterlimit="10" stroke-width="1.81"/></svg>